<svg width="68" height="68" viewBox="0 0 68 68" fill="none" xmlns="http://www.w3.org/2000/svg">
<g filter="url(#filter0_d_336_162)">
<path fill-rule="evenodd" clip-rule="evenodd" d="M30.8148 0.676417C32.8488 -0.225472 35.1512 -0.225472 37.1851 0.676416L60.726 11.1147C66.114 13.5038 64.4645 21.8182 58.6026 21.8182H9.39744C3.53546 21.8182 1.88607 13.5038 7.27402 11.1147L30.8148 0.676417ZM35.0617 5.80267C34.3837 5.50204 33.6163 5.50204 32.9383 5.80267L10.5748 15.7187C10.3054 15.8381 10.3906 16.2407 10.6853 16.2407H57.3146C57.6093 16.2407 57.6946 15.8381 57.4252 15.7187L35.0617 5.80267Z" fill="white"/>
<path d="M6.72727 57.2727C6.72727 55.7665 7.94831 54.5455 9.45455 54.5455H58.5455C60.0517 54.5455 61.2727 55.7665 61.2727 57.2727C61.2727 58.779 60.0517 60 58.5455 60H9.45455C7.94832 60 6.72727 58.779 6.72727 57.2727Z" fill="white"/>
<path d="M31.2727 49.0909C31.2727 50.5971 32.4938 51.8182 34 51.8182C35.5062 51.8182 36.7273 50.5971 36.7273 49.0909V27.2727C36.7273 25.7665 35.5062 24.5455 34 24.5455C32.4938 24.5455 31.2727 25.7665 31.2727 27.2727V49.0909Z" fill="white"/>
<path d="M17.6364 51.8182C16.1301 51.8182 14.9091 50.5971 14.9091 49.0909L14.9091 27.2727C14.9091 25.7665 16.1301 24.5455 17.6364 24.5455C19.1426 24.5455 20.3636 25.7665 20.3636 27.2727L20.3636 49.0909C20.3636 50.5971 19.1426 51.8182 17.6364 51.8182Z" fill="white"/>
<path d="M47.6364 49.0909C47.6364 50.5971 48.8574 51.8182 50.3636 51.8182C51.8699 51.8182 53.0909 50.5971 53.0909 49.0909V27.2727C53.0909 25.7665 51.8699 24.5455 50.3636 24.5455C48.8574 24.5455 47.6364 25.7665 47.6364 27.2727V49.0909Z" fill="white"/>
</g>
<defs>
<filter id="filter0_d_336_162" x="0" y="0" width="68" height="68" filterUnits="userSpaceOnUse" color-interpolation-filters="sRGB">
<feFlood flood-opacity="0" result="BackgroundImageFix"/>
<feColorMatrix in="SourceAlpha" type="matrix" values="0 0 0 0 0 0 0 0 0 0 0 0 0 0 0 0 0 0 127 0" result="hardAlpha"/>
<feOffset dy="4"/>
<feGaussianBlur stdDeviation="2"/>
<feComposite in2="hardAlpha" operator="out"/>
<feColorMatrix type="matrix" values="0 0 0 0 0 0 0 0 0 0 0 0 0 0 0 0 0 0 0.25 0"/>
<feBlend mode="normal" in2="BackgroundImageFix" result="effect1_dropShadow_336_162"/>
<feBlend mode="normal" in="SourceGraphic" in2="effect1_dropShadow_336_162" result="shape"/>
</filter>
</defs>
</svg>
