<svg width="68" height="68" viewBox="0 0 68 68" fill="none" xmlns="http://www.w3.org/2000/svg">
<g filter="url(#filter0_d_336_179)">
<path fill-rule="evenodd" clip-rule="evenodd" d="M19.144 1.65144C20.662 0.892489 22.473 0 25.8182 0C29.1633 0 30.9743 0.892419 32.4923 1.65136L32.5358 1.6731C33.7238 2.26721 34.6433 2.72703 36.7274 2.72709C40.1012 2.7272 42.0994 1.46921 42.7657 0.968506C43.8028 0.189063 45.0283 0.254779 45.8743 0.646099C46.7313 1.04245 47.6364 1.98814 47.6364 3.38584L47.6364 32.7273H55.8182C60.3351 32.7273 64 36.3858 64 40.9063V49.0909C64 51.6136 63.3615 53.6869 62.2635 55.3338C61.177 56.9637 59.7478 58.0162 58.4015 58.6893C57.0659 59.3571 55.7633 59.6774 54.8177 59.835C54.2496 59.9297 53.668 60.001 53.0909 60H14.9091C12.3864 60 10.3131 59.3615 8.66616 58.2635C7.03631 57.177 5.98379 55.7477 5.31065 54.4015C4.64286 53.0659 4.32256 51.7633 4.16495 50.8177C4.08507 50.3384 4.04407 49.933 4.02291 49.6368C4.00528 49.39 4.00007 49.244 4 49.0909V3.38581C4 1.98815 4.90503 1.04246 5.76198 0.646088C6.60805 0.254751 7.83348 0.189035 8.87062 0.968425C9.53689 1.46911 11.5352 2.72709 14.9091 2.72709C16.9931 2.72709 17.9126 2.26728 19.1006 1.67317L19.144 1.65144ZM9.46359 49.0909L9.45455 7.31919C10.9278 7.81574 12.7472 8.18164 14.9091 8.18164C18.2543 8.18164 20.0652 7.28915 21.5832 6.5302L21.6267 6.50847C22.8147 5.91435 23.7341 5.45454 25.8182 5.45454C27.9023 5.45454 28.8217 5.91435 30.0097 6.50844L30.0531 6.53015C31.5711 7.28906 33.3821 8.18153 36.7272 8.18164C38.8891 8.18171 40.7086 7.81583 42.1818 7.31927V49.0909C42.1818 51.2265 42.6394 53.04 43.4459 54.5454H14.9091C13.3409 54.5454 12.346 54.1612 11.6918 53.7251C11.0205 53.2776 10.5389 52.6613 10.1893 51.9621C9.83441 51.2523 9.64335 50.5094 9.54528 49.921C9.49918 49.6444 9.47123 49.3702 9.46359 49.0909ZM53.921 54.4547C54.5094 54.3566 55.2523 54.1656 55.9621 53.8106C56.6613 53.4611 57.2776 52.9795 57.7251 52.3082C58.1612 51.654 58.5455 50.6591 58.5455 49.0909V40.9063C58.5455 39.4019 57.3262 38.1818 55.8182 38.1818H47.6364L47.6364 49.0909C47.6364 50.6591 48.0206 51.654 48.4567 52.3082C48.9043 52.9795 49.5205 53.4611 50.2197 53.8106C50.9295 54.1656 51.6724 54.3566 52.2609 54.4547C52.5486 54.5027 52.7824 54.5256 52.9337 54.5364C53.2625 54.5599 53.5974 54.5086 53.921 54.4547Z" fill="white"/>
<path d="M14.9091 19.0909C14.9091 17.5847 16.1301 16.3636 17.6364 16.3636H34C35.5062 16.3636 36.7273 17.5847 36.7273 19.0909C36.7273 20.5971 35.5062 21.8182 34 21.8182H17.6364C16.1301 21.8182 14.9091 20.5971 14.9091 19.0909Z" fill="white"/>
<path d="M14.9091 30C14.9091 28.4938 16.1301 27.2727 17.6364 27.2727H34C35.5062 27.2727 36.7273 28.4938 36.7273 30C36.7273 31.5062 35.5062 32.7273 34 32.7273H17.6364C16.1301 32.7273 14.9091 31.5062 14.9091 30Z" fill="white"/>
<path d="M14.9091 40.9091C14.9091 39.4029 16.1301 38.1818 17.6364 38.1818H34C35.5062 38.1818 36.7273 39.4029 36.7273 40.9091C36.7273 42.4153 35.5062 43.6364 34 43.6364H17.6364C16.1301 43.6364 14.9091 42.4153 14.9091 40.9091Z" fill="white"/>
</g>
<defs>
<filter id="filter0_d_336_179" x="0" y="0" width="68" height="68" filterUnits="userSpaceOnUse" color-interpolation-filters="sRGB">
<feFlood flood-opacity="0" result="BackgroundImageFix"/>
<feColorMatrix in="SourceAlpha" type="matrix" values="0 0 0 0 0 0 0 0 0 0 0 0 0 0 0 0 0 0 127 0" result="hardAlpha"/>
<feOffset dy="4"/>
<feGaussianBlur stdDeviation="2"/>
<feComposite in2="hardAlpha" operator="out"/>
<feColorMatrix type="matrix" values="0 0 0 0 0 0 0 0 0 0 0 0 0 0 0 0 0 0 0.25 0"/>
<feBlend mode="normal" in2="BackgroundImageFix" result="effect1_dropShadow_336_179"/>
<feBlend mode="normal" in="SourceGraphic" in2="effect1_dropShadow_336_179" result="shape"/>
</filter>
</defs>
</svg>
