<svg width="60" height="60" viewBox="0 0 60 60" fill="none" xmlns="http://www.w3.org/2000/svg">
<path fill-rule="evenodd" clip-rule="evenodd" d="M54.5444 19.2119C56.4081 20.6299 57.5 22.8358 57.5 25.1776V50C57.5 54.1421 54.1421 57.5 50 57.5H10C5.85786 57.5 2.5 54.1421 2.5 50V25.1776C2.5 22.8358 3.59188 20.6299 5.45559 19.2119C10.9185 15.0555 22.3284 6.37872 25.5 4C28.1667 2 31.8333 2 34.5 4C37.6716 6.37871 49.0815 15.0555 54.5444 19.2119ZM7.5 25.422L25.3527 39.5163C28.0775 41.6674 31.9225 41.6674 34.6473 39.5162L52.5 25.422V50C52.5 51.3807 51.3807 52.5 50 52.5H10C8.61929 52.5 7.5 51.3807 7.5 50V25.422ZM31.5 8L49.4481 21.4611L31.5491 35.5918C30.6408 36.3089 29.3592 36.3089 28.4509 35.5918L10.5519 21.4611L28.5 8C29.3889 7.33333 30.6111 7.33333 31.5 8Z" fill="#0F0F0F"/>
</svg>
