<svg width="57" height="60" viewBox="0 0 57 60" fill="none" xmlns="http://www.w3.org/2000/svg">
<path fill-rule="evenodd" clip-rule="evenodd" d="M28.3104 35.0086C34.1719 35.0086 38.9236 29.9718 38.9236 23.7586C38.9236 17.5454 34.1719 12.5086 28.3104 12.5086C22.4489 12.5086 17.6972 17.5454 17.6972 23.7586C17.6972 29.9718 22.4489 35.0086 28.3104 35.0086ZM28.3104 30.0176C25.0493 30.0176 22.4057 27.2153 22.4057 23.7586C22.4057 20.3019 25.0493 17.4996 28.3104 17.4996C31.5715 17.4996 34.2151 20.3019 34.2151 23.7586C34.2151 27.2153 31.5715 30.0176 28.3104 30.0176Z" fill="#0F0F0F"/>
<path fill-rule="evenodd" clip-rule="evenodd" d="M50.1698 28.9543C53.2191 14.4703 42.4651 0.00878906 28.3019 0.00878906C14.1427 0.00878906 3.38774 14.4902 6.43437 28.9562C8.78594 40.7051 18.2953 52.1163 23.9708 58.0671C26.4014 60.6157 30.2024 60.6157 32.6331 58.0671C38.3088 52.116 47.8189 40.7039 50.1698 28.9543ZM28.3019 5.00879C39.4162 5.00879 47.9642 16.4745 45.5661 27.8653C44.4143 33.3386 41.8299 38.2538 38.7975 42.7974C35.6282 47.546 32.0352 51.661 29.3158 54.5124C28.723 55.1339 27.8808 55.1339 27.288 54.5124C24.5687 51.6612 20.976 47.5464 17.8068 42.7982C14.7741 38.2542 12.1907 33.3401 11.038 27.8668C8.64243 16.492 17.1937 5.00879 28.3019 5.00879Z" fill="#0F0F0F"/>
</svg>
