<svg width="60" height="63" viewBox="0 0 60 63" fill="none" xmlns="http://www.w3.org/2000/svg">
<path fill-rule="evenodd" clip-rule="evenodd" d="M45.1836 61.7774C39.3578 60.2687 27.4314 56.0154 16.6192 44.8397C5.80714 33.664 1.69225 21.3364 0.232624 15.3147C-0.606203 11.8542 0.904293 8.51483 3.46554 6.62385L10.18 1.6665C14.1087 -1.23407 19.574 -0.249814 22.3221 3.85321L26.5493 10.1645C28.3437 12.8436 27.7248 16.5154 25.1596 18.4094L21.7889 20.8979C22.299 22.9148 23.8856 27.0567 28.8546 32.1928C33.8236 37.3289 37.8307 38.9689 39.782 39.4962L42.1896 36.0122C44.0219 33.3607 47.5743 32.7209 50.1662 34.5756L56.2722 38.945C60.2417 41.7856 61.1939 47.4347 58.3877 51.4955L53.5917 58.4358C51.7622 61.0831 48.5315 62.6444 45.1836 61.7774ZM20.6977 40.6241C30.5301 50.7871 41.3806 54.6465 46.5853 55.9943C47.346 56.1913 48.2657 55.8858 48.8982 54.9705L53.6943 48.0302C54.6297 46.6766 54.3122 44.7936 52.9891 43.8468L46.8831 39.4774L44.2994 43.2162C43.2435 44.7441 41.2908 45.9426 39.0172 45.4355C36.1794 44.8026 30.9336 42.7729 24.7762 36.4084C18.6188 30.0439 16.6551 24.6217 16.0428 21.6885C15.5522 19.3384 16.7117 17.32 18.1899 16.2286L21.8071 13.5581L17.5799 7.24672C16.6638 5.87904 14.842 5.55095 13.5325 6.51782L6.81801 11.4752C5.93256 12.1289 5.63692 13.0795 5.82751 13.8658C7.13155 19.2456 10.8654 30.461 20.6977 40.6241Z" fill="#0F0F0F"/>
</svg>
